<mxfile host="app.diagrams.net" modified="2024-04-18T13:55:50.040Z" agent="Mozilla/5.0 (Windows NT 10.0; Win64; x64) AppleWebKit/537.36 (KHTML, like Gecko) Chrome/123.0.0.0 Safari/537.36" version="24.0.7" etag="FhSZWzvqBopzpFW5aKEX" type="github">
  <diagram name="Pagina-1" id="wJ1V50IH1IuiKim2gVSn">
    <mxGraphModel>
      <root>
        <mxCell id="0" />
        <mxCell id="1" parent="0" />
      </root>
    </mxGraphModel>
  </diagram>
</mxfile>
